<svg width="117" height="35" viewBox="0 0 117 35" fill="none" xmlns="http://www.w3.org/2000/svg">
<path d="M71.9903 27.3222C65.2718 32.2899 55.4993 34.9366 47.0706 34.9366C35.2622 34.9366 24.6754 30.5797 16.6131 23.3318C16.0024 22.7618 16.5317 21.9881 17.3054 22.436C25.9784 27.4851 36.6874 30.4983 47.7628 30.4983C55.2143 30.4983 63.4394 28.951 71.0131 25.7342C72.1532 25.2863 73.0897 26.5079 71.9903 27.3222Z" fill="#ABAFC7"/>
<path d="M74.7999 24.1054C73.9448 23.006 69.0993 23.576 66.9413 23.861C66.2898 23.9425 66.1676 23.3724 66.7784 22.9652C70.6466 20.2371 76.958 21.0515 77.6909 21.9473C78.4239 22.8431 77.4873 29.1952 73.8634 32.2083C73.2933 32.6562 72.764 32.4119 73.0083 31.8012C73.8227 29.7652 75.655 25.2455 74.7999 24.1054Z" fill="#ABAFC7"/>
<path d="M90.3947 0.163086C95.7287 0.163086 98.6201 4.72335 98.6203 10.5459C98.6203 16.1651 95.4438 20.6445 90.3947 20.6445C85.1831 20.6443 82.3333 16.0841 82.3332 10.3838C82.2924 4.64263 85.183 0.163327 90.3947 0.163086ZM38.8859 0.163086C40.3925 0.163086 42.0213 0.774071 43.0392 2.19922C44.1793 3.74652 43.9357 5.98624 43.9357 7.98145V19.627C43.9354 19.9931 43.6095 20.2782 43.2433 20.2783H39.7003C39.3341 20.2375 39.0492 19.9525 39.049 19.627V9.85449C39.049 9.08084 39.1308 7.12551 38.9679 6.39258C38.6829 5.17148 37.9091 4.8048 36.8507 4.80469C35.9957 4.80469 35.059 5.3751 34.6925 6.31152C34.3261 7.24805 34.3664 8.79581 34.3664 9.85449V19.627C34.3661 19.9932 34.0403 20.2783 33.674 20.2783H30.091C29.7247 20.2376 29.4399 19.9525 29.4396 19.627V9.85449C29.4396 7.81857 29.7649 4.76465 27.2404 4.76465C24.6754 4.76489 24.757 7.6965 24.757 9.85449V19.627C24.7161 19.9525 24.4306 20.2373 24.0236 20.2373H20.4406C20.115 20.1966 19.8301 19.9525 19.7892 19.627V1.22168C19.7893 0.855255 20.1152 0.570312 20.4816 0.570312H23.8205C24.1867 0.570374 24.431 0.855109 24.4718 1.18066V3.58301H24.5529C25.408 1.26226 27.0779 0.163122 29.2765 0.163086C31.5159 0.163086 32.9409 1.26241 33.9181 3.58301C34.7732 1.26233 36.7687 0.16319 38.8859 0.163086ZM110.917 0.163086C112.505 0.163086 114.094 0.733267 115.111 2.32129C116.048 3.78718 116.048 6.27097 116.048 8.0625V19.667C116.007 19.9927 115.722 20.2373 115.356 20.2373H111.773C111.447 20.1966 111.162 19.952 111.121 19.667V9.65039C111.121 7.61447 111.365 4.68262 108.881 4.68262C108.026 4.68275 107.212 5.2529 106.805 6.14844C106.316 7.28852 106.235 8.38816 106.235 9.65039V19.5859C106.194 19.9522 105.868 20.2371 105.502 20.2373H101.918C101.552 20.1965 101.267 19.9115 101.267 19.5859V1.14062C101.307 0.814884 101.593 0.529309 101.959 0.529297H105.298C105.624 0.529297 105.868 0.773706 105.949 1.05859V3.86816H106.031C107.049 1.34392 108.434 0.163113 110.917 0.163086ZM79.5236 0.530273C79.8899 0.530443 80.215 0.815283 80.215 1.18164V3.4209C80.2149 3.78733 79.8894 4.27566 79.3195 5.08984L73.2121 13.8037C75.4922 13.763 77.8949 14.0894 79.9308 15.2295C80.3783 15.4738 80.5005 15.8807 80.5412 16.2471V19.0566C80.5412 19.4638 80.1336 19.9123 79.6857 19.668C76.0619 17.7543 71.217 17.5502 67.2267 19.708C66.8196 19.9116 66.3714 19.5048 66.3712 19.0977V16.4102C66.3712 16.003 66.3716 15.2697 66.8195 14.6182L73.9044 4.47949H67.756C67.3896 4.47949 67.0637 4.19452 67.0636 3.82812V1.18164C67.0636 0.774456 67.3485 0.530273 67.715 0.530273H79.5236ZM90.3947 3.9502C87.7484 3.95058 87.5851 7.57408 87.5851 9.81348C87.5851 12.0531 87.5452 16.8574 90.3546 16.8574C93.1231 16.8572 93.2863 12.9896 93.2863 10.6279C93.2863 9.08063 93.2049 7.20708 92.757 5.74121C92.3498 4.43825 91.5348 3.9502 90.3947 3.9502Z" fill="#ABAFC7"/>
<path d="M55.7434 0C57.4943 0 59.775 0.448281 61.1595 1.79199C62.9099 3.42062 62.7474 5.61908 62.7473 7.98047V13.5596C62.7474 15.2288 63.4396 15.962 64.0911 16.8984C64.3352 17.2241 64.3761 17.6314 64.0911 17.835C63.3175 18.4457 62.0145 19.5855 61.2815 20.1963C61.0372 20.3999 60.7111 20.4402 60.4261 20.2773C59.2455 19.3003 59.0013 18.8114 58.3499 17.875C56.3954 19.8702 54.97 20.4814 52.4456 20.4814C49.4325 20.4814 47.0707 18.6085 47.0706 14.9033C47.0706 11.9717 48.6583 10.0163 50.8977 9.03906C52.8522 8.18397 55.5809 8.02166 57.6575 7.77734V7.3291C57.6575 6.47409 57.7385 5.45649 57.2093 4.72363C56.7614 4.07214 55.9471 3.78711 55.2141 3.78711C53.8298 3.78716 52.6085 4.4795 52.3235 5.94531C52.242 6.27095 52.0378 6.59668 51.7122 6.59668L48.2513 6.22949C47.9663 6.14801 47.6406 5.94477 47.722 5.49707C48.5363 1.26242 52.3231 4.69258e-05 55.7434 0ZM57.6575 10.6689C55.0516 10.6689 52.3238 11.2385 52.3235 14.292C52.3235 15.8392 53.1375 16.8983 54.5218 16.8984C55.5397 16.8984 56.4361 16.2875 57.0061 15.2695C57.6982 14.0074 57.6575 12.8266 57.6575 11.4424V10.6689Z" fill="#ABAFC7"/>
<path d="M8.67285 0C10.4237 0 12.7044 0.448281 14.0889 1.79199C15.8393 3.42062 15.6768 5.61908 15.6768 7.98047V13.5596C15.6768 15.2288 16.3691 15.962 17.0205 16.8984C17.2647 17.2241 17.3055 17.6314 17.0205 17.835C16.2469 18.4457 14.9439 19.5855 14.2109 20.1963C13.9666 20.3999 13.6405 20.4402 13.3555 20.2773C12.1749 19.3003 11.9307 18.8114 11.2793 17.875C9.32485 19.8702 7.89945 20.4814 5.375 20.4814C2.36192 20.4814 0.000147498 18.6085 0 14.9033C0 11.9717 1.58772 10.0163 3.82715 9.03906C5.78164 8.18397 8.51027 8.02166 10.5869 7.77734V7.3291C10.5869 6.47409 10.6679 5.45649 10.1387 4.72363C9.69077 4.07214 8.87649 3.78711 8.14355 3.78711C6.75919 3.78716 5.53795 4.4795 5.25293 5.94531C5.17144 6.27095 4.96724 6.59668 4.6416 6.59668L1.18066 6.22949C0.89572 6.14801 0.570018 5.94477 0.651367 5.49707C1.46572 1.26242 5.25255 4.69258e-05 8.67285 0ZM10.6279 10.6689C8.02206 10.6689 5.29321 11.2385 5.29297 14.292C5.29297 15.8393 6.10777 16.8984 7.49219 16.8984C8.51012 16.8984 9.40552 16.2874 9.97559 15.2695C10.6678 14.0073 10.6279 12.8267 10.6279 11.4424V10.6689Z" fill="#ABAFC7"/>
</svg>
