<svg width="166" height="35" viewBox="0 0 166 35" fill="none" xmlns="http://www.w3.org/2000/svg">
<path d="M33.9422 21.3988C31.6408 30.6313 22.2915 36.2474 13.059 33.946C3.8314 31.6447 -1.78637 22.2948 0.516096 13.0645C2.8164 3.83204 12.1652 -1.78572 21.3944 0.51566C30.6258 2.81704 36.243 12.168 33.9416 21.3988H33.9422Z" fill="#ABAFC7"/>
<path fill-rule="evenodd" clip-rule="evenodd" d="M24.826 14.7765C25.169 12.4837 23.4233 11.2512 21.0363 10.4289L21.8107 7.32309L19.9201 6.85193L19.1663 9.87593C18.6627 9.75221 18.158 9.63338 17.6521 9.51947L18.4113 6.47555L16.5213 6.00439L15.747 9.10916C15.3357 9.01547 14.9318 8.92286 14.5398 8.82539L14.542 8.8157L11.9347 8.1647L11.4318 10.1839C11.4318 10.1839 12.8345 10.5054 12.8049 10.5253C13.5706 10.7165 13.709 11.2232 13.6858 11.6249L12.8038 15.1631C12.8566 15.1765 12.925 15.1965 13.0003 15.2261L12.8006 15.1765L11.5643 20.1331C11.4706 20.3657 11.2331 20.7146 10.6973 20.5822C10.7167 20.6096 9.32373 20.2392 9.32373 20.2392L8.38519 22.4038L10.8454 23.0176C11.1275 23.088 11.406 23.1606 11.6816 23.2324C11.8532 23.2771 12.0237 23.3215 12.1932 23.3649L11.4108 26.5063L13.2992 26.9775L14.0735 23.8689C14.5893 24.0095 15.0901 24.1382 15.5801 24.2604L14.808 27.3539L16.698 27.825L17.4809 24.6895C20.7047 25.2996 23.1288 25.0535 24.1492 22.1383C24.9714 19.7906 24.1083 18.4364 22.4121 17.5528C23.6473 17.2674 24.5778 16.4549 24.826 14.7765ZM20.506 20.8331C19.9697 22.9881 16.595 22.096 15.0535 21.6885C14.9157 21.6521 14.7925 21.6196 14.6873 21.5934L15.7255 17.4316C15.8547 17.4639 16.0127 17.4994 16.1917 17.5396C17.7878 17.8982 21.055 18.6321 20.506 20.8331ZM16.5106 15.6083C17.7968 15.9515 20.6021 16.7002 21.0907 14.7431V14.7425C21.5898 12.7402 18.8631 12.1366 17.5315 11.8418C17.3817 11.8086 17.2496 11.7794 17.1417 11.7525L16.2004 15.5271C16.2893 15.5492 16.3937 15.5771 16.5106 15.6083Z" fill="white"/>
<path d="M102.559 10.2969C103.869 10.2969 105.039 10.4207 106.069 10.6689C107.103 10.9193 108.038 11.2425 108.884 11.6484L106.658 16.71C106.065 16.4716 105.461 16.2609 104.849 16.0781C104.224 15.8859 103.462 15.793 102.561 15.793C100.406 15.793 98.7032 16.5361 97.4357 18.0156C96.1724 19.4969 95.5363 21.4915 95.5363 23.9932C95.5363 25.4751 95.8566 26.673 96.4982 27.5898C97.1367 28.5068 98.3167 28.9638 100.029 28.9639C100.874 28.9639 101.691 28.8754 102.472 28.7031C103.259 28.5287 103.954 28.3093 104.567 28.0498L105.049 33.2383C104.166 33.5769 103.263 33.8615 102.346 34.0908C101.355 34.3331 100.178 34.458 98.8116 34.458C97.009 34.458 95.4816 34.1949 94.2335 33.6748C92.9843 33.1477 91.9514 32.447 91.1378 31.5596C90.3206 30.6701 89.7341 29.6309 89.3712 28.4395C89.0083 27.248 88.8224 25.995 88.8224 24.6904L88.8263 24.3213C88.8637 22.4818 89.1826 20.7422 89.7814 19.1064C90.4194 17.361 91.3385 15.8348 92.5304 14.5254C93.7187 13.2224 95.1667 12.1888 96.8712 11.4307C98.5662 10.6768 100.466 10.2969 102.559 10.2969ZM121.329 10.2959C122.842 10.2959 124.173 10.5304 125.324 10.9951C126.47 11.4587 127.413 12.117 128.158 12.958C128.896 13.8033 129.457 14.7957 129.833 15.9463C130.213 17.0915 130.4 18.3659 130.401 19.7598C130.401 21.5012 130.124 23.2493 129.575 24.9961C129.026 26.7352 128.21 28.3074 127.133 29.7041C126.058 31.0987 124.715 32.2397 123.1 33.126C121.488 34.0128 119.618 34.457 117.496 34.457C115.956 34.457 114.617 34.2215 113.482 33.7568C112.35 33.2927 111.413 32.6403 110.671 31.7949C109.928 30.9538 109.373 29.9571 108.992 28.8086C108.612 27.6606 108.428 26.3891 108.428 24.9961C108.428 23.2495 108.708 21.5026 109.276 19.7598C109.84 18.0152 110.678 16.4458 111.785 15.0518C112.885 13.6557 114.242 12.514 115.838 11.624C117.433 10.74 119.268 10.296 121.329 10.2959ZM46.8781 11.2549C47.4397 11.001 48.0228 10.7971 48.6202 10.6455C49.2336 10.4964 49.8631 10.4226 50.4943 10.4258L51.0099 10.4375C52.1908 10.4922 53.2263 10.7378 54.1134 11.168C55.133 11.6644 55.974 12.3329 56.6486 13.1738C57.314 14.0191 57.8092 15.0074 58.129 16.1396C58.4467 17.2758 58.6066 18.4964 58.6066 19.8027C58.6065 21.8111 58.2387 23.7065 57.4962 25.4941C56.7532 27.2843 55.7463 28.8376 54.465 30.1621C53.1845 31.4851 51.6723 32.5283 49.9288 33.2988C48.188 34.0699 46.295 34.4551 44.2628 34.4551C44.0001 34.4551 43.5382 34.448 42.8859 34.4346C42.2332 34.4211 41.4827 34.3533 40.6427 34.2402C39.74 34.1113 38.8446 33.9357 37.9601 33.7139C37.0343 33.4903 36.1344 33.1685 35.2765 32.7549L42.8214 1.05176L49.5792 0.00488281L46.8781 11.2549ZM81.8663 10.9111H89.1066L87.799 16.2295H80.6027L78.6857 24.2529C78.5091 24.9211 78.409 25.546 78.381 26.127C78.3487 26.7099 78.4234 27.2103 78.5978 27.6318C78.7712 28.0545 79.082 28.3804 79.5343 28.6104C79.985 28.8446 80.6294 28.9629 81.4747 28.9629C82.171 28.9629 82.8502 28.897 83.505 28.7656C84.1777 28.6323 84.8399 28.4504 85.4865 28.2217L85.9689 33.1943C85.0427 33.5297 84.0961 33.8055 83.1349 34.0205C82.1156 34.2553 80.9084 34.3682 79.5138 34.3682C77.5087 34.3682 75.9544 34.0698 74.8468 33.4775C73.7408 32.8809 72.9583 32.065 72.4904 31.0322C72.0289 30.0038 71.8234 28.8175 71.881 27.4805C71.9402 26.1409 72.142 24.7323 72.4904 23.25L76.7657 5.19727L83.5265 4.15039L81.8663 10.9111ZM65.6144 33.8486H59.1603L64.6105 10.9121H71.1095L65.6144 33.8486ZM137.435 33.8486H130.975L136.426 10.9121H142.927L137.435 33.8486ZM156.819 10.3838C160.224 10.3838 162.571 11.3749 163.866 13.3516C165.161 15.3282 165.384 18.0327 164.544 21.4619L161.575 33.8467H155.078L157.956 21.7227C158.131 20.9662 158.269 20.2336 158.371 19.5186C158.475 18.81 158.468 18.1846 158.349 17.6445C158.243 17.1267 157.958 16.6624 157.544 16.334C157.118 16.0007 156.474 15.834 155.602 15.834C154.738 15.8374 153.877 15.9259 153.03 16.0986L148.8 33.8447H142.301L147.579 11.9551C148.069 11.8119 148.617 11.6395 149.211 11.4521C149.872 11.2471 150.543 11.0734 151.221 10.9326C151.958 10.7711 152.79 10.6398 153.704 10.5381C154.618 10.4342 155.662 10.3838 156.819 10.3838ZM48.8829 15.833C48.4737 15.833 47.9468 15.9113 47.2931 16.0508C46.6374 16.1989 46.0505 16.5063 45.5245 16.9688L42.6476 28.916C42.8209 28.9467 42.9748 28.9755 43.1056 29.0029C43.2336 29.0325 43.3743 29.0538 43.5157 29.0684C43.6649 29.0851 43.8359 29.0938 44.0421 29.0938H44.8263C45.8438 29.0937 46.802 28.8435 47.7032 28.3525C48.6092 27.8573 49.4049 27.1822 50.0402 26.3682C50.704 25.5195 51.2263 24.569 51.587 23.5537C51.9653 22.5042 52.1572 21.3959 52.1544 20.2803C52.1544 18.8849 51.9217 17.7984 51.4572 17.0107C50.9925 16.2273 50.1321 15.833 48.8829 15.833ZM120.721 15.793C119.764 15.793 118.919 16.0707 118.194 16.6191C117.468 17.1742 116.857 17.8729 116.365 18.7139C115.868 19.5592 115.499 20.4814 115.25 21.4834C115.002 22.4876 114.881 23.438 114.881 24.3389C114.881 25.7943 115.116 26.9289 115.577 27.7441C116.045 28.555 116.886 28.9638 118.107 28.9639C119.066 28.9639 119.909 28.6877 120.637 28.1338C121.359 27.5829 121.972 26.8838 122.467 26.04C122.961 25.2002 123.333 24.2754 123.582 23.2715C123.826 22.2705 123.951 21.3153 123.951 20.415C123.951 18.9635 123.717 17.8274 123.251 17.0127C122.787 16.2012 121.942 15.793 120.721 15.793ZM69.714 0.444336C70.6142 0.444336 71.4265 0.711811 72.1544 1.24902C72.8792 1.78908 73.2442 2.6117 73.2443 3.71387C73.2478 4.30882 73.1205 4.89779 72.8722 5.43848C72.6368 5.96135 72.3044 6.43485 71.8927 6.83398C71.4809 7.22852 71.0011 7.5463 70.4767 7.77051C69.9371 8.00635 69.3645 8.11719 68.755 8.11719C67.8745 8.12442 67.016 7.84118 66.3126 7.31152C65.5822 6.77739 65.2199 5.95552 65.2198 4.84766C65.2198 4.23821 65.344 3.66642 65.59 3.12695C65.8278 2.6043 66.1614 2.13049 66.5734 1.73047C66.9862 1.33644 67.4656 1.01865 67.9894 0.791992C68.5344 0.559113 69.1213 0.440861 69.714 0.444336ZM141.528 0.444336C142.431 0.444339 143.246 0.711659 143.973 1.24902C144.699 1.78908 145.065 2.61171 145.065 3.71387C145.065 4.32556 144.934 4.90001 144.691 5.43848C144.447 5.97668 144.119 6.43997 143.713 6.83398C143.3 7.22764 142.821 7.54524 142.297 7.77051C141.756 8.00635 141.184 8.11719 140.57 8.11719C139.691 8.12461 138.833 7.84132 138.131 7.31152C137.403 6.7774 137.037 5.95568 137.037 4.84766C137.037 4.23823 137.164 3.6664 137.409 3.12695C137.646 2.60368 137.979 2.12965 138.392 1.73047C138.805 1.3364 139.285 1.0185 139.809 0.791992C140.352 0.558979 140.938 0.44075 141.528 0.444336Z" fill="#ABAFC7"/>
</svg>
