<svg width="168" height="35" viewBox="0 0 168 35" fill="none" xmlns="http://www.w3.org/2000/svg">
<path d="M21.5166 0C29.9133 0 36.6737 3.59658 40.2227 8.80859L26.1338 17.2461L34.1748 4.89941C31.8744 3.45264 29.0518 2.09766 26.1338 2.09766C17.885 2.09769 11.0909 8.98102 11.0908 17.2295C11.0908 19.9932 11.876 22.59 13.2305 24.8018C15.9177 29.2077 20.846 32.164 26.3311 32.1641C34.4356 32.1641 38.8975 25.1699 38.8975 25.1699L39.4717 27.0332C35.7196 31.9131 29.0159 34.8525 21.5166 34.8525C12.8826 34.8524 5.436 30.7336 2.00977 24.7939C0.719784 22.5568 0 20.0575 0 17.4258C0.000128535 7.8015 9.63249 1.58611e-05 21.5166 0ZM121.54 5.55762C129.63 5.55774 136.188 12.1152 136.188 20.2051C136.188 21.8084 135.931 23.3521 135.454 24.7959C133.528 30.6365 128.026 34.8524 121.54 34.8525C115.053 34.8525 109.552 30.6368 107.625 24.7939C107.137 23.3132 106.889 21.7641 106.891 20.2051C106.891 12.1151 113.449 5.55762 121.54 5.55762ZM56.7725 6.47461C65.143 3.42931 67.7959 10.6523 67.7959 10.6523L71.9941 24.7939L74.8125 34.2861H64.9268L62.9834 27.7861C61.6819 31.5314 57.2899 34.286 52.0723 34.2861C45.8293 34.2861 40.7686 30.3432 40.7686 25.4785C40.7686 25.2509 40.7801 25.0247 40.8018 24.7939C41.2459 20.2536 46.122 16.6709 52.0723 16.6709C55.4494 16.671 58.4806 17.8248 60.5518 19.6543L57.8594 10.6523H46.5146C46.538 10.6384 48.4535 9.50145 56.7725 6.47461ZM98.5137 5.74609C101.274 5.74633 103.522 7.94642 103.599 10.6895V34.2861H93.4277V13.4316C93.4277 11.897 92.183 10.6523 90.6484 10.6523C89.5031 10.6522 88.4744 11.3556 88.0586 12.4229V34.2861H78.0762V10.6523H72.2549C72.2913 10.6303 80.36 5.74616 83.1621 5.74609C85.8236 5.74609 87.7937 7.79078 88.04 10.3955C91.9568 8.28284 95.8413 5.74609 98.5137 5.74609ZM162.748 5.74609C165.51 5.74609 167.758 7.94628 167.834 10.6895V34.2861H157.663V13.4316C157.663 11.897 156.418 10.6523 154.884 10.6523C153.738 10.6522 152.71 11.3556 152.294 12.4229V34.2861H142.312V10.6523H136.729C136.787 10.6163 144.599 5.74609 147.397 5.74609C150.059 5.74613 152.028 7.79083 152.275 10.3955C156.192 8.28292 160.076 5.74635 162.748 5.74609ZM118.948 7.02637C117.041 7.02658 115.223 8.8083 114.99 10.6523L119.267 24.7939L120.683 29.4727C120.71 31.4778 122.357 33.0819 124.38 33.082C126.448 33.082 128.124 31.4063 128.124 29.3389C128.124 29.1924 128.115 29.0481 128.099 28.9062L126.896 24.7939L122.67 10.3525C122.462 8.48112 120.875 7.02637 118.948 7.02637ZM56.5615 19.9775C53.7193 19.9777 51.3652 22.0692 50.9551 24.7969C50.9128 25.0783 50.8924 25.3629 50.8926 25.6475C50.8927 28.7785 53.4312 31.3174 56.5625 31.3174C59.6937 31.3172 62.2313 28.7787 62.2314 25.6475C62.2316 25.3618 62.2104 25.0764 62.168 24.7939C61.7579 22.0692 59.4043 19.9775 56.5615 19.9775Z" fill="#ABAFC7"/>
</svg>
