<svg width="170" height="35" viewBox="0 0 170 35" fill="none" xmlns="http://www.w3.org/2000/svg">
<path fill-rule="evenodd" clip-rule="evenodd" d="M20.4615 0C24.0692 0.592308 27.4615 2.58462 29.6154 5.54615C30.0462 6.13846 30.4769 6.78462 30.8 7.48462C30.2772 7.84655 29.7544 8.20097 29.2344 8.55349L29.2343 8.55356C28.3619 9.14505 27.4973 9.73119 26.6538 10.3385C26.4385 10.5 26.2769 10.6077 26.0077 10.7154C25.3615 9.1 24.2308 7.64615 22.7769 6.67692C21.7 5.97692 20.4615 5.49231 19.2231 5.22308C19.5261 3.83784 19.8639 2.4526 20.2086 1.03938L20.2086 1.03922C20.2926 0.694614 20.3771 0.348341 20.4615 0ZM7.43077 1.56154C9.1 1.02308 11.0385 1.88462 11.7385 3.44615C12.3308 4.63077 12.1692 6.19231 11.3615 7.21538C10.3385 8.50769 8.4 8.99231 6.94615 8.23846C5.97692 7.75385 5.22308 6.83846 5.00769 5.76154C4.84615 4.95385 4.9 4.09231 5.33077 3.33846C5.76154 2.47692 6.56923 1.88462 7.43077 1.56154ZM3.93878 19.9108C2.62854 19.8989 1.3262 19.887 0 19.9229C0.323077 22.5075 1.13077 24.9844 2.53077 27.0306C3.71538 28.969 5.38462 30.6382 7.26923 31.8767C10.7692 34.1921 15.1308 35.0536 19.2769 34.5152C21.3769 34.2459 23.4769 33.5459 25.3077 32.469C28.1615 30.7998 30.3692 28.1613 31.5538 25.0921C31.7692 24.5536 31.9846 24.0152 32.0385 23.4767C31.2899 23.2499 30.5605 23.0039 29.8341 22.759C28.8361 22.4225 27.8438 22.0879 26.8154 21.8075C26.4385 23.2075 25.7385 24.4998 24.8231 25.6306C23.4769 27.2998 21.6462 28.4305 19.6 28.9152C17.3385 29.4536 14.9692 29.3459 12.8154 28.5382C11.2538 27.9459 9.8 27.0306 8.66923 25.7382C7.21538 24.1229 6.3 22.0767 5.92308 19.9229C5.25697 19.9229 4.59688 19.9168 3.93878 19.9108Z" fill="#ABAFC7"/>
<path fill-rule="evenodd" clip-rule="evenodd" d="M85.4 12.6C89.3308 9.36921 95.4154 9.42306 99.4539 12.4923C102.846 15.1846 103.762 19.8154 103.438 23.9077C99.6673 23.9436 95.8721 23.9316 92.0849 23.9196C90.1943 23.9136 88.3057 23.9077 86.4231 23.9077C86.6923 26.1692 87.9308 28.4846 90.1385 29.3461C93.3154 30.9077 97.5154 29.4 98.6462 25.9538C98.9464 26.047 99.2447 26.1402 99.5417 26.233L99.542 26.2331L99.5421 26.2331C100.79 26.6229 102.016 27.0059 103.277 27.3538C102.415 29.7231 100.854 31.9308 98.5923 33.1692C94.1769 35.7 88.0385 34.9461 84.4308 31.2846C79.4769 26.3308 79.8539 17.0154 85.4 12.6ZM49.3769 10.9847C44.9077 9.1001 39.3077 10.9847 36.7769 15.077C33.4385 20.3001 34.0846 28.0539 38.8769 32.2539C42.7539 35.5924 49.9154 35.7539 52.6616 30.8539C52.6885 31.3924 52.7154 31.9174 52.7423 32.4424C52.7693 32.9674 52.7962 33.4924 52.8231 34.0309H58.1C57.8259 29.1309 57.857 24.2309 57.8882 19.3309C57.906 16.5309 57.9238 13.7309 57.8846 10.9309H52.5C52.5 11.9539 52.5 12.9232 52.5539 13.8924C51.7462 12.6539 50.7769 11.5232 49.3769 10.9847ZM41.4077 26.9767C39.1462 23.0998 40.0077 16.4228 44.9616 15.1844C47.5462 14.5382 50.5616 15.7228 51.6923 18.1998C53.1462 21.3767 52.9308 25.5767 50.4539 28.1613C47.977 30.7998 43.1308 30.1536 41.4077 26.9767ZM86.6446 19.4822C86.9254 18.5159 87.219 17.5056 87.9308 16.7463C89.8693 14.4309 93.6924 14.2156 96.0077 15.9386C97.2462 16.854 97.677 18.3617 98.0539 19.7617C95.1849 19.9233 92.2856 19.903 89.4015 19.8828H89.4014H89.4012H89.4011H89.4009C88.442 19.8761 87.4847 19.8694 86.5308 19.8694C86.5692 19.7416 86.6067 19.6123 86.6446 19.4822ZM111.677 12.3846C115.392 9.53075 120.831 9.53075 124.762 11.9538C128.638 14.4846 129.931 19.5461 129.392 23.9077C125.623 23.8718 121.854 23.8837 118.085 23.8957L118.084 23.8957C116.199 23.9017 114.315 23.9077 112.431 23.9077C112.7 25.2538 113.023 26.6538 113.938 27.6769C115.985 30.2077 120.077 30.6923 122.662 28.7538C123.283 28.305 123.683 27.6569 124.075 27.0225C124.294 26.6675 124.51 26.3168 124.762 26.0077C125.892 26.2904 127.023 26.6639 128.154 27.0375C128.531 27.162 128.908 27.2865 129.285 27.4077C128.423 29.8308 126.808 32.0384 124.492 33.2769C120.131 35.6461 114.208 35 110.654 31.5C105.377 26.4923 105.808 16.7461 111.677 12.3846ZM112.59 19.5123C112.873 18.5468 113.16 17.5667 113.831 16.7999C115.823 14.323 119.862 14.1614 122.177 16.0999C123.308 17.0691 123.685 18.523 123.954 19.8691H112.485C112.52 19.7507 112.555 19.6316 112.59 19.5123ZM139.946 13.7308C143.015 8.99229 151.146 9.04614 153.731 14.2154C156.208 9.96152 162.4 8.99229 166.277 11.8461C168.377 13.4615 169.346 16.1538 169.346 18.7384C169.382 22.1117 169.37 25.485 169.358 28.8583V28.8615C169.352 30.5487 169.346 32.2359 169.346 33.9231H164.015V20.3C164.015 18.9 163.8 17.3923 162.831 16.3692C160.785 14.3231 156.854 14.8615 155.508 17.4461C154.808 18.6308 154.808 20.0846 154.808 21.3769V33.9231H149.423C149.4 31.8228 149.407 29.7226 149.413 27.6266V27.6246V27.6245C149.422 24.8311 149.431 22.0452 149.369 19.2769C149.369 17.1231 147.592 15.1308 145.385 15.1846C142.8 14.8077 140.377 16.9077 140.215 19.4384C140.118 22.3481 140.138 25.2577 140.157 28.1557V28.1563C140.17 30.0849 140.183 32.0083 140.162 33.9231H134.723V10.8231H140C140 11.8461 140 12.8154 139.946 13.7308ZM70.2693 10.8771H64.8846V33.9771H70.377C70.4039 32.0656 70.4039 30.1541 70.4039 28.2425C70.4039 26.331 70.4039 24.4194 70.4308 22.5079C70.4846 20.5695 71.077 18.3618 72.8 17.231C74.2538 16.1649 76.1001 16.2327 77.8287 16.2962C78.0208 16.3032 78.2115 16.3102 78.4 16.3156V10.6618C75.2231 10.231 71.7231 11.4695 70.2154 14.4848C70.2154 13.8925 70.2289 13.2868 70.2423 12.681C70.2558 12.0752 70.2693 11.4695 70.2693 10.8771Z" fill="#ABAFC7"/>
</svg>
