<svg width="125" height="35" viewBox="0 0 125 35" fill="none" xmlns="http://www.w3.org/2000/svg">
<path d="M120.446 26.043C122.575 26.0432 124.448 27.64 124.448 30.002C124.447 32.3592 122.576 33.9578 120.446 33.958C118.322 33.958 116.447 32.3593 116.447 30.002C116.447 27.6398 118.322 26.043 120.446 26.043ZM120.448 26.6807C118.579 26.6807 117.217 28.0847 117.217 30.002C117.217 31.916 118.579 33.3174 120.448 33.3174C122.321 33.3172 123.681 31.9136 123.681 30.002C123.681 28.0848 122.321 26.6808 120.448 26.6807ZM120.64 27.5576C121.66 27.5577 122.128 28.0037 122.128 28.8721C122.128 29.407 121.767 29.8309 121.301 29.8926V29.9131C121.705 29.9778 121.854 30.3389 121.937 30.999C122.001 31.4266 122.085 32.1681 122.238 32.3428H121.408C121.216 31.8933 121.236 31.2572 121.087 30.7246C120.964 30.3194 120.748 30.1719 120.283 30.1719H119.603V30.1738L119.599 30.1719V32.3418H118.898V27.5576H120.64ZM119.599 28.1953V29.5557H120.468V29.5537C121.148 29.5536 121.343 29.1917 121.343 28.8721C121.343 28.4941 121.148 28.1954 120.468 28.1953H119.599Z" fill="#ABAFC7"/>
<path d="M98.366 17.2803L102.847 12.1504H112.416L103.065 22.666L112.546 33.2686H102.589L97.9792 28.0986L93.4099 33.2686H83.7947L93.1921 22.7109L83.7947 12.1504H93.7097L98.366 17.2803ZM83.7947 7.41504H73.1521V12.1494H83.7947V19.2852H73.1521V25.834H83.7947V33.2676H65.3318V0H83.7947V7.41504Z" fill="#ABAFC7"/>
<path d="M19.6553 7.4165H8.83594V12.1489H18.749V16.5073C20.7269 12.9996 24.5131 10.8472 29.3096 10.8472C35.2143 10.8472 39.1974 13.9562 40.7422 19.0278C42.0964 14.4259 45.9544 10.9429 51.0752 10.9429C53.5742 10.9429 55.7298 11.633 57.4541 13.6147H57.54V0.00146484H65.3291V33.2729H57.5381V31.1177H57.4531C56.0306 33.2292 53.7028 34.479 51.1611 34.479C45.269 34.4788 40.9757 29.7275 40.3066 24.2173H24.8867C24.887 26.67 26.9351 28.7415 29.3086 28.7417C31.3564 28.7417 32.1347 28.3096 33.1582 26.8452H40.7314C38.7489 31.7115 34.9969 34.3842 29.3086 34.3843C22.5411 34.3843 17.2402 29.51 17.2402 22.5737C17.237 21.4649 17.3723 20.3598 17.6436 19.2847H8.83594V33.2681H0V0.00146484H19.6553V7.4165ZM52.8115 16.8804C49.7092 16.8806 48.1572 19.7503 48.1572 22.7368C48.1573 25.5304 49.941 28.2053 52.8115 28.2056C55.9553 28.2056 57.3134 25.5663 57.3135 22.7368C57.3135 19.7517 56.0307 16.8804 52.8115 16.8804ZM29.3086 15.8892C27.2633 15.8893 25.6252 17.2706 25.1328 19.3843H33.5254C33.117 17.2276 31.561 15.8892 29.3086 15.8892Z" fill="#ABAFC7"/>
</svg>
