<svg width="121" height="35" viewBox="0 0 121 35" fill="none" xmlns="http://www.w3.org/2000/svg">
<path d="M80.8818 12.0083C85.638 12.0083 89.8076 15.6801 89.8076 20.6284C89.8075 25.5131 85.9628 29.2476 81.4932 29.2476C79.5133 29.2475 78.1323 28.6724 76.7979 27.3638V34.9937H72.7939V20.8833C72.794 15.6143 76.6033 12.0083 80.8818 12.0083ZM4.20801 15.8735H13.083V6.52393H17.2969V29.4731H13.083V19.9282H4.20801V29.4731H0V6.52393H4.20801V15.8735ZM23.6562 21.9985C23.6564 23.9195 25.2213 25.4829 27.1426 25.4829C29.063 25.4827 30.6277 23.9194 30.6279 21.9985V12.1177H34.6172V21.9985C34.617 26.1203 31.2637 29.473 27.1426 29.4731C23.0204 29.4731 19.6662 26.1205 19.666 21.9985V12.1177H23.6562V21.9985ZM41.0625 14.1177C42.3968 12.808 43.7785 12.2339 45.7578 12.2339C50.2278 12.2339 54.0713 15.9691 54.0713 20.854C54.0711 25.8014 49.9035 29.4731 45.1465 29.4731C40.8675 29.4731 37.0588 25.8658 37.0586 20.5981V6.52393H41.0625V14.1177ZM116.246 12.7446H119.916V16.2563H116.246V23.1831C116.246 24.748 116.916 25.77 119.277 25.77C119.726 25.77 120.237 25.7374 120.684 25.7065L119.693 29.3462C119.31 29.4407 118.606 29.4731 118.096 29.4731C114.681 29.473 112.192 27.6533 112.192 24.0454V9.93408L116.246 8.11572V12.7446ZM63.8604 6.5376C66.0313 6.5376 68.6812 7.75074 69.9893 9.50635L67.3721 12.5718C66.3515 11.4862 64.7873 10.5915 63.6055 10.5913C62.1374 10.5913 60.7959 11.2301 60.7959 13.2427C60.7962 16.9773 70.3416 14.2957 70.3418 22.9146C70.3418 26.9058 67.0214 29.4604 62.9033 29.4604C60.1574 29.4604 57.8596 28.3103 56.0068 26.0435L58.9121 23.0425C59.9971 24.256 60.7646 25.4058 63.1279 25.4058C64.6273 25.4056 65.9353 24.2234 65.9355 22.8843C65.9355 18.5414 56.3898 21 56.3896 13.2427C56.3896 9.06011 59.5183 6.5377 63.8604 6.5376ZM45.8574 15.937C43.1446 15.9371 41.0703 18.2036 41.0703 20.854C41.0703 23.5039 43.1446 25.7699 45.8574 25.77C48.1562 25.77 50.2324 23.504 50.2324 20.854C50.2324 18.2035 48.1562 15.937 45.8574 15.937ZM81.5938 15.7114C78.8811 15.7114 76.8057 17.978 76.8057 20.6284C76.8057 23.2765 78.8811 25.5454 81.5938 25.5454C83.8918 25.5451 85.9677 23.2763 85.9678 20.6284C85.9678 17.9781 83.8919 15.7117 81.5938 15.7114Z" fill="#ABAFC7"/>
<path d="M82.1954 0C84.147 0 85.7267 1.58139 85.7267 3.53223C85.7267 3.85746 85.6632 4.16576 85.5802 4.46484C89.0786 7.11884 95.0592 11.6627 96.8829 13.0479C97.7758 12.5963 98.7536 12.3023 99.6964 12.166V7.96875C98.5179 7.46836 97.8284 6.36044 97.8282 5.06836C97.8282 3.30719 99.2654 1.88012 101.026 1.87988C102.786 1.87988 104.199 3.30704 104.199 5.06836C104.199 6.36044 103.468 7.46836 102.289 7.96875V12.1641C103.468 12.3241 104.514 12.697 105.523 13.2842C106.872 14.0811 107.951 15.1397 108.719 16.46C109.473 17.7708 109.832 19.2021 109.832 20.7529V20.8311C109.832 22.4076 109.386 23.8408 108.575 25.1377C107.769 26.4311 106.702 27.4447 105.339 28.1855C104.045 28.8865 102.669 29.2294 101.21 29.2295H100.968C99.6482 29.2295 98.4422 28.9411 97.3497 28.4688C96.7958 28.2295 96.2799 27.9526 95.8029 27.623L92.3234 31.1035C92.4053 31.3649 92.4483 31.64 92.4484 31.9219C92.4501 32.6459 92.1626 33.3407 91.6495 33.8516C91.1386 34.3654 90.4435 34.6542 89.7189 34.6523C88.9945 34.6543 88.2998 34.3654 87.7892 33.8516C87.2734 33.336 86.9886 32.6509 86.9884 31.9219C86.986 31.1976 87.2738 30.5021 87.7872 29.9912C88.5371 29.2374 89.6589 28.9914 90.6554 29.3623L94.0216 25.9873C93.4648 25.3003 93.0147 24.5407 92.7072 23.7051C92.3579 22.7479 92.1535 21.7286 92.1534 20.6494V20.3281C92.1535 18.7905 92.6484 17.3807 93.4581 16.0996C93.8576 15.4714 94.3566 14.9112 94.8927 14.4189L84.7482 7.10938L84.0099 6.5498C83.4786 6.8698 82.8629 7.06445 82.1974 7.06445C80.2459 7.06442 78.6653 5.48273 78.6652 3.53223C78.6652 1.58151 80.2441 0.000200116 82.1954 0ZM100.929 16.0293C100.08 16.0293 99.3174 16.26 98.6036 16.7305C97.8767 17.2043 97.3297 17.8001 96.9249 18.5664C96.5465 19.2673 96.3966 20.0093 96.3966 20.792V21.0342C96.3966 21.8304 96.6601 22.5817 97.1466 23.2695C97.6173 23.9702 98.1928 24.5232 98.9493 24.9111C99.6205 25.2635 100.306 25.4579 101.007 25.458H101.21C102.437 25.4578 103.523 24.8111 104.467 23.7617C105.289 22.8574 105.701 21.8608 105.701 20.7852C105.701 20.6239 105.694 20.4548 105.681 20.29C105.598 19.4973 105.342 18.7694 104.911 18.0947C104.467 17.4204 103.894 16.9075 103.193 16.5322C102.506 16.1805 101.777 16.0293 101.007 16.0293H100.929Z" fill="#ABAFC7"/>
</svg>
