<svg width="154" height="35" viewBox="0 0 154 35" fill="none" xmlns="http://www.w3.org/2000/svg">
<path d="M147.309 2.58252L153.766 2.61809C153.766 2.61809 141.762 18.8833 140.782 20.2089C140.464 20.6381 139.98 21.101 139.735 21.6749C139.115 23.1175 138.478 26.2819 138.478 26.2819L132.571 26.3115C132.571 26.3115 133.49 23.0129 133.452 21.256C133.419 19.7212 132.636 18.1882 132.196 16.6489C131.752 15.0907 131.149 12.0416 131.149 12.0416H137.222L138.06 15.3924L147.309 2.58252" fill="#ABAFC7"/>
<path d="M45.2891 12.042C44.5497 16.1339 43.0859 22.7345 41.9385 27.3291C41.2202 30.2045 40.7403 32.3021 38.7969 33.8203C38.623 33.9565 38.5226 33.8923 38.3779 34.0303C38.0194 34.3717 36.364 34.7681 35.4473 34.8682C33.9562 35.0297 32.2701 34.8892 30.4375 34.8516C30.917 33.0989 31.4593 30.9938 31.8867 29.4229C36.3536 29.9636 36.4673 25.7414 37.332 21.6748C37.8324 19.325 39.348 12.9846 39.6348 12.042H45.2891ZM99.7891 7.45215C101.68 6.03614 105.102 4.93666 109.213 5.35742C110.761 5.51657 113.098 6.0694 114.239 7.66113C114.545 8.08618 114.696 8.93021 114.867 9.5459C115.557 12.0345 114.252 17.8642 114.239 17.9219C114.239 17.9219 107.338 17.8067 103.559 17.9219C102.384 17.9577 100.977 17.7944 100.627 18.3408C100.135 19.107 100.807 20.2869 101.377 20.7852C102.033 21.3585 103.31 21.4243 103.769 21.4824C106.836 21.8721 113.257 21.583 113.257 21.583L112.145 26.5078C112.145 26.5078 103.072 26.963 98.5332 25.8799C97.6371 25.6665 96.797 25.2346 96.2295 24.623C96.0746 24.4558 95.9394 24.2283 95.793 24.0312C95.676 23.8739 95.3348 23.3569 95.1816 22.9482C94.1451 20.1861 95.3034 14.8942 96.4385 12.0586C96.5702 11.7301 96.7359 11.3131 96.9102 10.959C97.1277 10.5175 97.3115 10.0189 97.4854 9.75488C97.6023 9.5729 97.7477 9.45588 97.8691 9.28418C98.0093 9.08103 98.1722 8.88373 98.3232 8.70801C98.7421 8.22226 99.2175 7.87882 99.7891 7.45215ZM50.1055 6.80566C52.5493 2.54026 56.8008 -0.625364 63.9268 0.105469C65.309 0.247733 67.2942 0.853033 68.5342 1.57129C68.6198 1.62169 68.9196 1.86046 68.9883 1.90234C70.6638 2.96842 72.1902 5.51221 72.5127 7.85352C73.1155 12.2383 70.8028 17.0783 69.209 21.2871C70.8337 21.4338 72.2573 21.2647 72.3604 21.3857C72.467 21.5427 71.2716 26.4083 70.8545 26.4229C69.5649 26.4563 65.2913 26.4912 63.5088 26.4912C57.6931 26.4912 52.252 26.8702 49.4775 23.9785C48.3509 22.8036 47.5715 20.7886 47.3828 19.3711C47.0688 17.0048 47.4629 14.399 48.0117 12.251C48.5081 10.3116 49.144 8.48108 50.1055 6.80566ZM95.1738 5.51855C95.1678 5.54694 92.2304 19.4831 90.7324 26.2822H84.6592C80.4147 26.2822 76.6347 26.8074 75.0264 23.7686C73.4663 20.8181 74.955 15.9664 75.6543 12.6699C76.1486 10.337 77.1895 5.56836 77.1895 5.56836L82.6592 5.51855C82.6534 5.54653 81.1127 12.9497 80.4707 16.6494C80.2404 17.9769 79.7657 19.2274 80.2617 20.209C80.7328 21.1429 81.3926 21.2098 83.4023 21.2559C84.0371 21.2709 86.111 21.256 86.125 21.2559L89.8945 5.5498L95.1738 5.51855ZM128.059 5.56934C130.699 5.5693 133.786 5.23157 135.084 6.0127C136.271 6.72853 137.002 10.6668 137.007 10.6934C137.007 10.6934 130.773 10.7852 127.38 10.7852H124.448L120.888 26.2822H115.443C115.443 26.2822 118.832 9.44096 119.632 6.3877C119.891 5.39944 121.408 5.56934 123.969 5.56934H128.059ZM63.7178 5.75977C60.6333 4.67082 57.7455 6.19279 56.5977 7.43457C55.113 9.04284 54.6096 10.9215 54.084 13.5078C53.6928 15.4276 53.3723 17.4548 54.084 18.9521C55.3444 21.5993 59.2756 21.0216 63.5078 21.0469C64.1359 19.3632 64.6558 17.4721 65.1836 15.6016C65.7364 13.6377 66.5428 11.5081 66.4404 9.73828C66.3295 7.8455 64.742 6.12214 63.7178 5.75977ZM106.261 10.1504C101.53 10.0018 101.622 13.5078 101.622 13.5078L109.736 13.5605C109.736 13.5605 109.907 12.5651 109.161 11.4131C108.524 10.4313 107.936 10.2029 106.261 10.1504ZM41.1006 5.5498C42.9767 5.5498 44.7216 5.57519 46.7822 5.5752C46.4305 7.17711 46.0787 8.99327 45.708 10.5762H39.8447C40.2989 8.82139 40.6461 7.07643 41.1006 5.5498Z" fill="#ABAFC7"/>
<path d="M26.4417 22.7223L26.3205 23.0364C24.2559 27.0571 20.5971 29.5239 15.3785 29.6327C12.9389 29.683 10.6145 29.057 9.09598 28.3764C5.81907 26.904 3.06269 24.1736 1.55746 21.2562C-0.601833 17.0742 -0.991252 11.2567 3.49852 6.91162C3.56785 6.91162 2.95388 7.85382 3.0232 7.85382L2.89963 8.2559C-0.335689 18.385 9.63218 27.0656 19.3219 26.0727C21.6505 25.834 24.62 24.5588 26.4417 22.7223Z" fill="#ABAFC7"/>
<path d="M20.5782 18.5339C23.016 18.5504 25.5623 17.4111 27.0702 15.8115C25.7509 19.1602 21.9312 21.3125 16.8091 20.628C12.52 20.0542 8.43444 15.7383 8.01368 11.4137C7.70594 8.2664 8.80277 6.38802 10.6103 4.10938C9.98218 5.30114 9.74738 6.22014 9.6889 6.80638C9.0023 13.6146 15.1275 18.498 20.5782 18.5339Z" fill="#ABAFC7"/>
<path d="M26.8251 10.0774C26.4463 10.9466 24.2644 12.5881 23.3008 12.7934C19.4853 13.6063 17.0417 11.7969 15.7617 9.73799C15.5715 9.43055 15.2197 8.59083 15.1567 8.37713C14.6603 6.68924 14.8885 4.13631 16.3693 2.81494C15.9232 4.07151 15.8581 5.53093 16.0929 6.47976C16.2352 7.05334 16.6686 8.05492 17.1023 8.68487C17.8914 9.83233 18.392 10.1111 19.4057 10.7206C19.8623 10.9949 20.3521 11.2149 20.5637 11.2752C21.5249 11.5582 23.5543 12.3036 26.8254 10.0774" fill="#ABAFC7"/>
</svg>
