<svg width="190" height="35" viewBox="0 0 190 35" fill="none" xmlns="http://www.w3.org/2000/svg">
<path d="M176.713 0C181.025 0 183.391 0.417447 186.036 0.974609L186.87 8.21875C184.507 7.24017 181.025 6.54297 177.823 6.54297C174.904 6.54305 173.094 7.37994 173.094 9.18945C173.094 14.4815 189.099 12.3951 189.099 23.5312C189.098 31.8874 182.139 34.6729 173.654 34.6729C170.314 34.6728 166.139 34.1177 163.081 33.0039L161.965 25.3428C165.025 26.8737 170.177 27.9872 173.512 27.9873C177.27 27.9873 178.804 26.8739 178.804 24.7871C178.804 19.3564 162.938 21.7216 162.938 10.0273C162.939 3.23893 168.503 5.56795e-05 176.713 0ZM12.3838 0C22.8195 0 29.2202 3.34157 29.2207 12.6729C29.2205 21.1648 23.2375 26.039 13.7754 26.0391H10.1562V33.9785H0V0.695312C3.47775 0.27768 8.34792 2.84286e-06 12.3838 0ZM43.4131 0.695312V13.9248H53.9883V0.695312H64.1465L64.1455 33.9785H53.9883V20.8867H43.4131V33.9785H33.2539V0.695312H43.4131ZM81.8164 33.9785H71.6592V0.695312H81.8164V33.9785ZM99.4883 27.292H109.229L107.699 33.9785H89.3301V0.695312H99.4883V27.292ZM123.005 33.9785H112.848V0.695312H123.005V33.9785ZM143.041 0C153.477 5.84176e-05 159.877 3.34165 159.877 12.6729C159.877 21.1648 153.89 26.0391 144.436 26.0391H140.816V33.9785H130.654V0.695312C134.133 0.277677 139.006 0 143.041 0ZM11.8271 6.26758C11.305 6.26758 10.7502 6.26721 10.1562 6.30078V20.0527H11.8271C17.1153 20.0527 19.204 17.1281 19.2041 12.8105C19.2041 8.6342 16.8345 6.26711 11.8271 6.26758ZM142.483 6.26758C141.963 6.26758 141.406 6.2672 140.817 6.30078V20.0527H142.483C147.773 20.0526 149.858 17.128 149.858 12.8105C149.858 8.63428 147.491 6.2672 142.483 6.26758Z" fill="#ABAFC7"/>
</svg>
