<svg width="160" height="34" viewBox="0 0 160 34" fill="none" xmlns="http://www.w3.org/2000/svg">
<path d="M32.4512 16.1938V33.939H22.6348V16.1938H32.4512ZM157.792 16.1938V33.939H147.975V16.1938H157.792Z" fill="#ABAFC7"/>
<path d="M153.412 0.000976562C155.686 -0.0362175 157.803 1.15584 158.951 3.11914C160.099 5.08246 160.098 7.51249 158.95 9.47559C157.802 11.4385 155.685 12.6303 153.411 12.5928L16.9893 12.5889V33.8584H0V0.000976562H153.412ZM16.9902 8.29883H134.566C135.291 8.3138 135.968 7.936 136.335 7.31055C136.702 6.68495 136.702 5.9098 136.335 5.28418C135.968 4.65852 135.292 4.27995 134.566 4.29492L16.9902 4.2832V8.29883Z" fill="#ABAFC7"/>
<path d="M59.6996 16.1938C63.9789 16.1938 66.4915 19.103 66.4916 22.2974C66.4916 24.6414 65.2232 26.6615 63.2181 27.5698L66.4955 33.939H55.4847L52.5277 28.2134H49.3177V33.939H39.5013V16.1938H59.6996ZM94.2992 20.4731H82.4681V23.0845H94.2992V27.3628H82.4681V29.9741H94.2992V33.939H72.6527V16.1938H94.2992V20.4731ZM110.807 29.9741H120.749V33.939H100.991V16.1938H110.807V29.9741ZM133.943 16.1938V29.9741H143.885V33.939H124.127V16.1938H133.943ZM49.3177 23.9155H54.9183C55.9504 23.9155 56.7875 23.0784 56.7875 22.0464C56.7874 21.0144 55.9503 20.1782 54.9183 20.1782L49.3177 20.1587V23.9155Z" fill="#ABAFC7"/>
</svg>
