<svg width="97" height="97" viewBox="0 0 97 97" fill="none" xmlns="http://www.w3.org/2000/svg">
<circle cx="48.5" cy="48.5" r="48.5" fill="#4C40F7"/>
<path d="M49.5615 31.3872C49.253 31.1659 48.8824 31.0478 48.5028 31.0498C48.1231 31.0517 47.7538 31.1737 47.4477 31.3982C44.0853 33.8347 33.8333 42.1287 33.8333 52.6667C33.8333 58.6195 37.4047 63.7455 42.5123 66.0427C41.6385 64.8129 41.1682 63.342 41.1667 61.8333C41.1355 55.9282 47.6897 49.1962 47.9683 49C48.1231 48.8891 48.3087 48.8295 48.4991 48.8295C48.6895 48.8295 48.8751 48.8891 49.0298 49C49.3085 49.1962 55.8333 54.4523 55.8333 61.837C55.8333 63.4027 55.3292 64.8492 54.4895 66.0427C59.5953 63.7455 63.1667 58.6213 63.1667 52.6758C63.1667 41.9307 52.933 33.7797 49.5615 31.3872V31.3872Z" fill="white"/>
</svg>
